{"title":"Rabbit Hole 2010 R5 X264 Feel-Free","uid":6208081,"size":901017584,"categoryP":"video","categoryS":"movies","magnet":"?xt=urn:btih:bbbe36cfbeb9974f795fe1847e497d5170174756&amp;dn=Rabbit+Hole+2010+R5+X264+Feel-Free&amp;tr=udp%3A%2F%2Ftracker.openbittorrent.com%3A80&amp;tr=udp%3A%2F%2Fopen.demonii.com%3A1337&amp;tr=udp%3A%2F%2Ftracker.coppersurfer.tk%3A6969&amp;tr=udp%3A%2F%2Fexodus.desync.com%3A6969","seeders":0,"leechers":1,"uploader":"hiest","files":-1,"time":1298884576,"description":"\n #######                            #######                      \n #       ###### ###### #            #       #####  ###### ###### \n #       #      #      #            #       #    # #      #      \n #####   #####  #####  #      ##### #####   #    # #####  #####  \n #       #      #      #            #       #####  #      #      \n #       #      #      #            #       #   #  #      #      \n #       ###### ###### ######       #       #    # ###### ###### \n\nGenre:Drama\nLanguage:English\nIMDb: &lt;a href=&quot;\nhttp://www.imdb.com/title/tt0935075/&quot; rel=&quot;nofollow&quot; target=&quot;_NEW&quot;&gt;\nhttp://www.imdb.com/title/tt0935075/&lt;/a&gt;\nSource:DVD9 R5/AUDIO:STUDIO AUDIO\nSubtitles:Romana\n\n\nFormat : MPEG-4\nFormat profile : Base Media\nCodec ID : isom\nFile size : 857 MiB\nDuration : 1h 27mn\nOverall bit rate : 1 373 Kbps\nMovie name : Rabbit Hole 2010 R5 X264 Feel-Free\n\n\nVideo\nFormat settings, CABAC : Yes\nFormat settings, ReFrames : 4 frames\nCodec ID : avc1\nCodec ID/Info : Advanced Video Coding\nDuration : 1h 27mn\nBit rate mode : Variable\nBit rate : 986 Kbps\nWidth : 720 pixels\nHeight : 384 pixels\nDisplay aspect ratio : 1.875\nFrame rate mode : Constant\nFrame rate : 25.000 fps\nColor space : YUV\nChroma subsampling : 4:2:0\nBit depth : 8 bits\nScan type : Progressive\nBits/(Pixel*Frame) : 0.143\nStream size : 613 MiB (72%)\nWriting library : x264 \n\nAudio\nID : 2\nFormat : AAC\nFormat/Info : Advanced Audio Codec\nFormat version : Version 4\nFormat profile : LC\nCodec ID : 40\nDuration : 1h 27mn\nBit rate mode : Variable\nBit rate : 384 Kbps\nChannel(s) : 6 channels\nChannel positions : Front: L C R, Side: L R, LFE\nSampling rate : 48.0 KHz\nStream size : 240 MiB (28%)\n\n\nPlot:\nLife for a happy couple is turned upside down after their young son dies in an accident. Based on a play by David Lindsay-Abaire\n\n\nGreets:\n\nINK,CRYS,IMAGINE,LKRG,FXG,3Li,FLAWL3SS,TA,iLLUSiON,ViSiON,LU,TheFalcon007,MYSTiC,PrisM,Noir,WBZ,LAP,Rx,Kingdom,SAFCuk009+Fabreezy,HDLiTE,TWiZTED,ExtraTorrentRG.ELEKTRI4KA,MAGNAT,CM8\nAnd to all the other p2p grps past and present\n\n\n\n\n\n\n================================== &lt;a href=&quot;\nhttp://thepiratebay.se/user/hiest&quot; rel=&quot;nofollow&quot; target=&quot;_NEW&quot;&gt;\nhttp://thepiratebay.se/user/hiest&lt;/a&gt;\n==================================\n\n\n\n\n\n\nScreen Shots:\n &lt;a href=&quot;\nhttp://www.postimg.com/30000/29125.jpg&quot; rel=&quot;nofollow&quot; target=&quot;_NEW&quot;&gt;\nhttp://www.postimg.com/30000/29125.jpg&lt;/a&gt;\n &lt;a href=&quot;\nhttp://www.postimg.com/30000/29126.jpg&quot; rel=&quot;nofollow&quot; target=&quot;_NEW&quot;&gt;\nhttp://www.postimg.com/30000/29126.jpg&lt;/a&gt;\n &lt;a href=&quot;\nhttp://www.postimg.com/30000/29127.jpg&quot; rel=&quot;nofollow&quot; target=&quot;_NEW&quot;&gt;\nhttp://www.postimg.com/30000/29127.jpg&lt;/a&gt;\n &lt;a href=&quot;\nhttp://www.postimg.com/30000/29129.jpg&quot; rel=&quot;nofollow&quot; target=&quot;_NEW&quot;&gt;\nhttp://www.postimg.com/30000/29129.jpg&lt;/a&gt;\n &lt;a href=&quot;\nhttp://www.postimg.com/30000/29130.jpg&quot; rel=&quot;nofollow&quot; target=&quot;_NEW&quot;&gt;\nhttp://www.postimg.com/30000/29130.jpg&lt;/a&gt;\n\n\n #######                            #######                      \n #       ###### ###### #            #       #####  ###### ###### \n #       #      #      #            #       #    # #      #      \n #####   #####  #####  #      ##### #####   #    # #####  #####  \n #       #      #      #            #       #####  #      #      \n #       #      #      #            #       #   #  #      #      \n #       ###### ###### ######       #       #    # ###### ###### \n","torrent":{"xt":"urn:btih:bbbe36cfbeb9974f795fe1847e497d5170174756","amp;dn":"Rabbit+Hole+2010+R5+X264+Feel-Free","amp;tr":["udp%3A%2F%2Ftracker.openbittorrent.com%3A80","udp%3A%2F%2Fopen.demonii.com%3A1337","udp%3A%2F%2Ftracker.coppersurfer.tk%3A6969","udp%3A%2F%2Fexodus.desync.com%3A6969"],"infoHash":"bbbe36cfbeb9974f795fe1847e497d5170174756","infoHashBuffer":{"type":"Buffer","data":[187,190,54,207,190,185,151,79,121,95,225,132,126,73,125,81,112,23,71,86]},"announce":[],"urlList":[]}}